<?xml version="1.0" encoding="utf-8"?>
<!-- Generator: Adobe Illustrator 19.0.0, SVG Export Plug-In . SVG Version: 6.00 Build 0)  -->
<svg version="1.1" id="Layer_1" xmlns="http://www.w3.org/2000/svg" xmlns:xlink="http://www.w3.org/1999/xlink" x="0px" y="0px"
	 viewBox="0 0 700 756" style="enable-background:new 0 0 700 756;" xml:space="preserve">
<style type="text/css">
	.st0{fill:url(#XMLID_60_);}
</style>
<linearGradient id="XMLID_60_" gradientUnits="userSpaceOnUse" x1="32.2734" y1="372.9446" x2="662.9347" y2="372.9446">
	<stop  offset="0" style="stop-color:#CCE0F4"/>
	<stop  offset="6.405089e-002" style="stop-color:#C3DCF2"/>
	<stop  offset="0.1706" style="stop-color:#A9D2EE"/>
	<stop  offset="0.3066" style="stop-color:#80C2E7"/>
	<stop  offset="0.4649" style="stop-color:#47ACDE"/>
	<stop  offset="0.5674" style="stop-color:#1E9CD7"/>
	<stop  offset="0.8652" style="stop-color:#0075BE"/>
	<stop  offset="0.9944" style="stop-color:#005B97"/>
</linearGradient>
<path id="XMLID_19_" class="st0" d="M587.9,444.1c-10.9-4.1-22.1-7.5-33.2-11c-39-12.6-78-25.1-117-37.6c-5-1.6-9.2-4-11.3-9
	c-1.2-2.9-1-5.1,1.7-7.5c28.2-23.8,46.5-53.6,55-89.5c0.3-1.3,2.1-3.1,3.4-3.3c10.1-1.9,17.1-8,22.3-16.4c9-14.6,11.3-30.4,7.5-47.1
	c-3-13-9.4-23.4-23.3-28c8.5-17,12.5-34.3,10.3-52.7c-3.2-26.7-14.7-47.5-41.4-57.4c-1.4-0.5-2.8-1.9-3.4-3.3
	c-11.1-24.3-30.7-38.8-55.8-45.6c-46.5-12.8-91.3-7.4-133.5,16c-20.5,11.4-38,26.3-51.8,45.5c-19.4,27.1-26.7,57.1-20,89.8
	c1.5,7.5,2.5,13.2-4.1,18.8c-3.2,2.7-4.9,7.5-6.4,11.7c-4.2,11.6-4.3,23.5-1.2,35.4c3.5,13.5,9.9,25.1,23.2,31.5
	c1.2,0.6,2.2,2.5,2.5,3.9c8.3,36.3,26.7,66.5,55.1,90.6c2.9,2.4,3,4.8,1.7,7.9c-2.2,5.1-6.5,7.3-11.4,8.9
	c-47.9,15.4-95.8,30.7-143.6,46.3c-51.1,16.8-82.8,61-81.1,113.9c0.4,11.5,3.7,22.9,6,34.3c7.2,35.8,14.5,71.5,21.9,107.2
	c1.1,5.3,3.2,10.4,5.3,15.5c1.4,3.4,4.2,4.5,8,4.4c27.5-0.2,55-0.1,82.5-0.1H465c43.5,0,86.9,0,130.4,0c9,0,18,0,27,0
	c1.6,0,3.6-0.2,4.6-1.2c4.5-4.7,6.7-10.4,7.3-17.1c5.5-18.6,9.4-43.9,9.6-45.2c0,0,0,0,0,0c5.4-25.1,10.8-50.1,15.9-75.2
	c1.5-7.5,2.9-15.1,3.1-22.7C664.2,505.3,634.9,461.8,587.9,444.1z M235.1,277.9c-1.6-8.3-5.4-13.7-13.7-15.8
	c-6.5-1.7-9.4-7.4-10.8-12.7c-1.6-6.1-1.4-12.8-1-19.2c0.5-6.7,5.1-10.5,11.6-12c9.9-2.3,13-6.5,13.5-16.9c0.1-2.1,1.4-4.9,3.1-6.1
	c32.8-24.2,68.7-42,108-52.9c1.2-0.3,2.5-0.4,5.7-1c-3.4,7-6.3,12.6-8.8,18.5c-1,2.3-2,6-0.9,7.5c1.2,1.5,5.1,2,7.4,1.4
	c24.5-6.5,46.5-17.9,65.9-34.4c1.4-1.2,4.2-2.5,5.5-1.8c13.6,6.6,26.6,14,34.3,27.9c4.1,7.5,6,15.5,6,24c0,7.2-0.2,14.3-0.1,21.5
	c0.1,9.7,6.1,15.4,15.8,15.2c11.5-0.3,17.2,5.2,16.6,16.6c-0.2,4.4-1.2,8.9-2.5,13.2c-2.1,6.8-7,10.2-14.2,10.6
	c-9.3,0.5-13.8,4.3-15.5,13.2c-6.6,35.7-23.7,65-51.8,88.1c-5.1,4.2-9,10.3-11.9,16.3c-4.8,10-10.9,17.9-21.5,22.4
	c-8.4,3.5-16.4,8.1-24.5,12.4c-2.6,1.4-4.8,1.3-7.4-0.1c-9.6-5.1-19.1-10.1-28.9-14.8c-7.1-3.3-11.8-8.8-14.6-15.7
	c-4.4-10.5-11.3-18.5-19.8-25.8C256,336.4,241,309.6,235.1,277.9z M270.8,673c-14.2-10.4-29-20.2-42.1-31.9
	c-12.7-11.3-22.7-25.2-30.2-40.6c-4.2-8.7-8-17.6-11.9-26.4c-0.9-1.9-1.2-4.1-2.1-7.1c1.3-2.1,2.6-4.7,4.4-6.8c1.7-2,4.8-3,6-5.1
	c1.5-2.6,2.9-6.4,2.1-8.9c-0.8-2.5-4.2-5.4-6.9-5.9C179,538,177.8,537,178,525.5c0.5-27.4,11.4-51,27.7-72.4
	c0.9-1.2,2.9-1.7,4.4-2.5c0.3,1.8,1.3,3.9,0.7,5.4c-1.4,4.1-3.5,7.9-5.3,11.8c-6.6,14.4-12,29.2-14,45.1c-0.3,2.3-0.5,4.6-0.5,7
	c-0.2,7.4,2.3,10.4,9.6,11.3c3.3,0.4,6.6,0.6,9.9,0.9c4.1,0.4,7.4,2,8.9,6.2c1.4,4.2-0.1,7.5-3.2,10.3c-3,2.7-5.7,5.7-8.9,8
	c-5.9,4.4-6.6,9.6-4.3,16.3c6.3,19,15.5,36.5,27.9,52.1c12.8,16,27,30.6,43.2,43.3c1.9,1.5,2.7,4.3,4,6.5
	C275.6,674.2,272.6,674.4,270.8,673z M395.7,612.1c-0.9,1-2.5,2.3-3.5,2c-1.3-0.3-2.9-1.8-3.2-3c-1.2-5.4-2-10.8-2.8-16.2
	c-4.6-28.6-9.2-57.2-13.8-85.8c-0.9-5.6,0.8-10.2,5-13.9c2.5-2.2,5.2-4.2,7.6-6.5c7.1-6.6,6.5-17-1.5-22.4
	c-9.4-6.3-19.1-12.2-28.8-18.1c-4.6-2.8-9.6-2.9-14.3-0.1c-9.7,5.9-19.4,11.8-28.8,18.1c-8.2,5.5-9.3,17-1.2,22.5
	c11.6,7.9,13.3,17.5,10.8,30.6c-5.6,29.6-9.8,59.5-14.7,89.2c-0.3,2.1-2.3,3.9-3.6,5.8c-1.6-1.6-4-2.9-4.8-4.8
	c-22.5-53.2-39-108.3-51.9-164.6c-2.7-11.9,2.7-21.3,14.3-24.9c6.5-2,13.2-3,21.1-4.8c7.3,2.2,15.7,3.8,23.4,7.1
	c9.9,4.2,19.4,9.5,28.9,14.6c9,4.8,17.7,4.9,26.7,0.1c8.8-4.7,17.8-9,26.7-13.7c15.2-7.9,30.7-9.1,46.9-3.5
	c12,4.2,17.3,13.4,14.1,25.9c-7,27.1-13.5,54.3-21.8,81c-8.7,27.6-19.4,54.5-29.3,81.8C396.9,609.7,396.5,611.1,395.7,612.1z
	 M423.1,674c-1.5,0.9-3.9,0.4-5.9,0.5c0.9-1.8,1.4-4.1,2.8-5.2c15.2-12.1,29.3-25.2,41.5-40.3c13.4-16.6,23.8-34.8,30.7-55.2
	c2.4-7.2,2.1-12.8-4.5-17.6c-3.4-2.4-6.7-5.2-9.1-8.5c-1.7-2.4-3.3-6.4-2.4-8.9c0.9-2.7,4.4-5.2,7.3-6.3c3.7-1.3,7.9-0.9,11.8-1.4
	c6.4-0.8,9-3.9,9-10.3c-0.1-12.8-3.4-25.1-7.9-36.9c-2.9-7.8-6.5-15.3-9.8-23c-0.5-1.2-1.4-2.4-1.6-3.6c-0.3-2.1-0.1-4.3-0.1-6.5
	c1.8,1,4.2,1.6,5.4,3.2c13.4,17.8,23.1,37.3,26.1,59.7c0.4,3,1,5.9,1.5,8.8c-0.1,0-0.3,0-0.5,0c0,1.8-0.1,3.7,0,5.4
	c0.7,7.3-2.3,11.3-9.7,11.8c-4.6,0.3-8.2,1.6-9.7,6.3c-1.6,4.9,0.8,8.2,4.5,11.1c9.1,7.1,9.4,9.3,5,19.9
	c-9.1,21.8-19.8,42.5-36.4,59.8C456.9,651.5,440.7,663.5,423.1,674z"/>
</svg>
