<?xml version="1.0" encoding="utf-8"?>
<!-- Generator: Adobe Illustrator 19.0.0, SVG Export Plug-In . SVG Version: 6.00 Build 0)  -->
<svg version="1.1" id="Layer_1" xmlns="http://www.w3.org/2000/svg" xmlns:xlink="http://www.w3.org/1999/xlink" x="0px" y="0px"
	 viewBox="0 0 195.5 45" style="enable-background:new 0 0 195.5 45;" xml:space="preserve">
<style type="text/css">
	.st0{fill:none;}
	.st1{fill:#119FDA;}
</style>
<path id="XMLID_159_" class="st0" d="M772.9,377.9c0.9,0.9,1.9,1.9,2.8,2.8"/>
<g id="XMLID_88_">
	<path id="XMLID_89_" class="st1" d="M8.7,38.3c-1.7,0-2.9-0.3-3.6-1c-0.7-0.7-1-1.7-1-3c0-0.4,0-1,0.1-1.8c0-0.8,0.1-1.9,0.2-3
		c0.1-1.2,0.2-2.4,0.3-3.8c0.1-1.4,0.2-2.8,0.3-4.2c0.1-1.8,0.3-3.3,0.4-4.5c0.1-1.3,0.2-2.3,0.2-3.3c0.1-0.9,0.1-1.7,0.2-2.3
		c0-0.6,0.1-1.1,0.1-1.6c0-0.5,0-0.9,0-1.3s0-0.8,0-1.2c0-0.2,0.1-0.4,0.2-0.5c0.1-0.1,0.3-0.2,0.4-0.2c0.8,0,1.6,0,2.5-0.1
		c0.9,0,1.8-0.1,2.8-0.2c0.9-0.1,1.8-0.1,2.7-0.2c0.9,0,1.6-0.1,2.3-0.1c1.9,0,3.5,0.2,4.9,0.7c1.4,0.5,2.5,1.1,3.3,2
		c0.8,0.9,1.5,1.9,1.9,3.2c0.4,1.2,0.6,2.7,0.6,4.3c0,1.8-0.2,3.4-0.7,5.1c-0.5,1.6-1.2,3.1-2.2,4.3c-1,1.2-2.2,2.2-3.8,3
		c-1.5,0.7-3.4,1.1-5.5,1.1c-1.3,0-2.4-0.1-3.3-0.4l-0.6,8.2c0,0.2-0.1,0.4-0.2,0.5c-0.1,0.1-0.3,0.2-0.5,0.2H8.7z M15.9,12.9
		c-0.4,0-0.8,0-1.3,0.1c0,0,0,0,0,0c-0.9,0.1-1.5,0.8-1.6,1.6c0,0.9-0.1,1.9-0.2,3.1c-0.1,1.8-0.2,3.7-0.4,5.6
		c0.4,0.1,0.9,0.2,1.3,0.2c0.4,0,0.8,0.1,1.2,0.1c1,0,1.9-0.2,2.5-0.7c0.6-0.5,1.1-1.1,1.5-1.8s0.6-1.5,0.7-2.2
		c0.1-0.8,0.2-1.4,0.2-2c0-1.3-0.3-2.3-0.9-2.9C18.5,13.2,17.4,12.9,15.9,12.9z"/>
	<path id="XMLID_92_" class="st1" d="M34.9,38.3c-1.7,0-2.9-0.3-3.6-1c-0.7-0.7-1-1.7-1-3c0-0.4,0-1,0.1-1.8c0-0.8,0.1-1.8,0.2-3
		s0.2-2.4,0.3-3.8c0.1-1.4,0.2-2.8,0.3-4.2c0.2-3,0.4-5.4,0.5-7.3c0.1-1.9,0.2-3.3,0.2-4.4c0.1-1.3,0.2-2.2,0.3-2.6
		c0.1-0.4,0.3-0.6,0.6-0.6c0.9,0,1.9,0,2.8-0.1c1,0,1.9-0.1,2.8-0.2c0.9-0.1,1.7-0.1,2.5-0.2c0.8,0,1.5-0.1,2.1-0.1
		c1.9,0,3.5,0.2,4.9,0.7c1.4,0.5,2.5,1.1,3.3,2c0.8,0.9,1.5,1.9,1.9,3.1c0.4,1.2,0.6,2.6,0.6,4.1c0,2.3-0.5,4.4-1.4,6.2
		c-0.9,1.8-2.4,3.2-4.4,4.1l3.7,5.3c0.7,1,1.2,1.8,1.6,2.3c0.4,0.6,0.5,1,0.5,1.2c0,0.2-0.1,0.5-0.4,0.9c-0.3,0.4-0.6,0.7-1.1,1.1
		c-0.5,0.4-1.1,0.7-1.8,1c-0.7,0.3-1.5,0.4-2.3,0.4c-1,0-1.8-0.3-2.5-0.9c-0.7-0.6-1.3-1.4-1.9-2.5c-0.6-1-1-2.2-1.4-3.5
		c-0.4-1.3-0.8-2.7-1.1-4.2c-1.1-0.1-1.9-0.2-2.6-0.3c-0.1,1.3-0.2,2.6-0.3,3.7c-0.1,1.2-0.2,2.2-0.2,3.2c-0.1,0.9-0.1,1.7-0.2,2.3
		c-0.1,0.6-0.1,1-0.1,1.1c0,0.2-0.1,0.4-0.2,0.5c-0.1,0.1-0.3,0.2-0.5,0.2H34.9z M42.1,12.9c-0.4,0-0.8,0-1.2,0.1c0,0,0,0,0,0
		c-0.8,0.1-1.4,0.7-1.5,1.6c0,0.7-0.1,1.5-0.1,2.3c-0.1,1.4-0.2,3-0.3,4.6c1,0.2,1.9,0.4,2.7,0.4c0.9,0,1.7-0.2,2.3-0.5
		c0.6-0.4,1-0.8,1.4-1.3c0.3-0.5,0.5-1.1,0.6-1.7c0.1-0.6,0.2-1.1,0.2-1.6c0-1.2-0.3-2.2-0.9-2.8C44.6,13.2,43.6,12.9,42.1,12.9z"/>
	<path id="XMLID_95_" class="st1" d="M62.4,38.3c-1.7,0-2.9-0.3-3.6-1c-0.7-0.7-1.1-1.6-1.1-2.8c0-0.6,0-1.6,0.1-3.1
		c0.1-1.4,0.2-3.1,0.4-4.9c0.1-1.8,0.3-3.8,0.4-5.8c0.1-2.1,0.3-4,0.4-5.8c0.1-1.8,0.3-3.4,0.4-4.8c0.1-1.4,0.1-2.3,0.1-2.8
		c0-0.4,0.2-0.7,0.7-0.7h2.5c1.8,0,3,0.4,3.7,1.2s0.9,1.9,0.9,3.4c0,0.1,0,0.6-0.1,1.4c0,0.8-0.1,1.8-0.2,3s-0.2,2.6-0.3,4.1
		c-0.1,1.5-0.2,3-0.3,4.6s-0.2,3.1-0.3,4.6c-0.1,1.5-0.2,2.9-0.3,4.1c-0.1,1.2-0.2,2.2-0.2,3.1c-0.1,0.8-0.1,1.3-0.1,1.5
		c0,0.2-0.1,0.4-0.2,0.5c-0.1,0.1-0.3,0.2-0.5,0.2H62.4z"/>
	<path id="XMLID_97_" class="st1" d="M84,6.2c2.8,0,4.9,0.6,6.2,1.8c1.4,1.2,2,2.8,2,4.8c0,1.7-0.5,2.9-1.4,3.8
		c-0.9,0.9-2.2,1.3-4,1.3c-0.5,0-0.9-0.1-1-0.2c-0.1-0.1-0.2-0.3-0.2-0.6c0-0.3,0-0.7-0.1-1.2c0-0.5-0.2-0.9-0.3-1.4
		c-0.2-0.4-0.5-0.8-0.8-1.1C84,13.1,83.5,13,82.8,13c-1,0-1.8,0.3-2.5,0.9c-0.7,0.6-1.1,1.3-1.1,2.3c0,0.8,0.3,1.5,0.9,2
		c0.6,0.5,1.4,1,2.3,1.4c0.9,0.4,1.9,0.9,3,1.3c1.1,0.4,2.1,1,3,1.8c0.9,0.7,1.7,1.6,2.3,2.7c0.6,1.1,0.9,2.5,0.9,4.1
		c0,1.3-0.2,2.5-0.6,3.7c-0.4,1.1-1.1,2.1-1.9,3c-0.8,0.8-1.9,1.5-3.2,2c-1.3,0.5-2.8,0.7-4.5,0.7c-1.5,0-2.9-0.2-4.1-0.5
		c-1.3-0.3-2.4-0.7-3.3-1.2c-0.9-0.5-1.7-1-2.2-1.6c-0.5-0.6-0.8-1.1-0.8-1.6c0-2,0.1-3.4,0.3-4.2s0.6-1.3,1.2-1.3
		c0.4,0,0.9,0.2,1.3,0.5c0.5,0.4,1,0.8,1.6,1.2s1.3,0.8,2.1,1.2c0.8,0.4,1.7,0.5,2.7,0.5c0.4,0,0.8,0,1.2-0.1
		c0.4-0.1,0.8-0.2,1.1-0.4c0.3-0.2,0.6-0.4,0.8-0.7c0.2-0.3,0.3-0.7,0.3-1.1c0-0.7-0.3-1.3-0.8-1.8c-0.6-0.4-1.3-0.9-2.1-1.2
		c-0.9-0.4-1.8-0.8-2.8-1.2c-1-0.4-1.9-1-2.8-1.7c-0.9-0.7-1.6-1.6-2.1-2.7c-0.6-1.1-0.8-2.5-0.8-4.2c0-1.9,0.4-3.6,1.1-4.9
		c0.7-1.3,1.7-2.4,2.8-3.3c1.1-0.8,2.4-1.5,3.9-1.8C81.2,6.4,82.6,6.2,84,6.2z"/>
	<path id="XMLID_99_" class="st1" d="M124.1,14.5c-0.2,0.7-0.5,1.6-0.9,2.8c-0.4,1.1-0.8,2.4-1.2,3.8s-0.9,2.8-1.4,4.3
		c-0.5,1.5-1,3-1.4,4.5c-0.5,1.5-1,2.8-1.4,4.2c-0.5,1.3-0.9,2.5-1.3,3.5c-0.1,0.2-0.4,0.4-0.7,0.6c-0.4,0.1-1,0.2-1.8,0.2
		c-0.5,0-1,0-1.6-0.1s-1-0.2-1.5-0.4c-0.5-0.2-0.9-0.4-1.2-0.7c-0.3-0.3-0.6-0.7-0.8-1.1c-0.4-1.5-0.9-3.2-1.3-5.1
		c-0.4-1.9-0.8-3.8-1.2-5.7c-0.4-1.9-0.8-3.8-1.1-5.7c-0.4-1.9-0.8-3.5-1.1-5.1c0,0.4,0,1.1,0,2.1s-0.1,2.2-0.1,3.5
		c0,1.3-0.1,2.8-0.1,4.3c0,1.5-0.1,3.1-0.1,4.5c0,1.5-0.1,2.8-0.1,4.1c0,1.3,0,2.3,0,3.1c0,0.9-0.1,1.5-0.2,1.7
		c-0.1,0.2-0.3,0.4-0.6,0.4h-2.5c-1.7,0-2.9-0.3-3.6-1c-0.7-0.7-1-1.7-1-3c0-0.4,0-1,0.1-1.8c0-0.8,0.1-1.8,0.2-3s0.2-2.4,0.3-3.8
		c0.1-1.4,0.2-2.8,0.3-4.2c0.1-1.9,0.3-3.5,0.4-4.8c0.1-1.3,0.2-2.4,0.2-3.2c0.1-0.9,0.1-1.6,0.2-2.1c0-0.5,0.1-1,0.1-1.4
		s0-0.8,0-1.2c0-0.4,0-0.8,0-1.4c0-0.2,0.1-0.4,0.3-0.5c0.2-0.1,0.3-0.2,0.5-0.2h6.2c1.2,0,2.1,0.2,2.9,0.6c0.7,0.4,1.4,0.9,1.8,1.7
		c0.5,0.8,0.9,1.8,1.2,3c0.3,1.2,0.6,2.7,0.8,4.4c0.3,1.7,0.5,3.6,0.8,5.9c0.3,1.9,0.6,3.9,1,6.1c0.1,0.3,0.5,0.3,0.6,0l0.9-3.3
		c0.3-1.2,0.6-2.2,0.8-3.1c0.2-0.8,0.4-1.5,0.6-2c0.1-0.5,0.3-1,0.4-1.5c0.1-0.5,0.3-1,0.4-1.5c0.1-0.5,0.3-1.2,0.5-2
		c0.2-0.8,0.5-1.8,0.8-3c0.3-1.2,0.7-2.7,1.2-4.6c0.1-0.2,0.2-0.3,0.3-0.5c0.1-0.2,0.4-0.2,0.8-0.2h7c1,0,1.7,0.1,2.3,0.3
		c0.6,0.2,1,0.5,1.4,0.8c0.3,0.4,0.6,0.8,0.7,1.3c0.1,0.5,0.2,1.1,0.2,1.8s0,1.8-0.1,3.3c-0.1,1.5-0.2,3.3-0.3,5.2
		c-0.1,1.9-0.3,3.9-0.4,5.9c-0.1,2.1-0.3,4-0.4,5.7c-0.1,1.8-0.2,3.2-0.3,4.5c-0.1,1.2-0.1,1.9-0.2,2.1c0,0.2-0.1,0.4-0.2,0.5
		c-0.1,0.1-0.3,0.2-0.5,0.2H127c-1.7,0-2.9-0.3-3.6-1c-0.7-0.7-1-1.5-1-2.6c0-0.3,0-0.9,0.1-1.8c0.1-0.9,0.2-1.9,0.3-3
		c0.1-1.2,0.3-2.4,0.4-3.8c0.1-1.4,0.3-2.8,0.4-4.1c0.1-1.4,0.2-2.7,0.3-4C124,16.6,124.1,15.5,124.1,14.5z"/>
	<path id="XMLID_101_" class="st1" d="M145.1,38.7c-1.8,0-3.2-0.1-4.3-0.3c-1.1-0.2-2-0.5-2.7-1c-0.7-0.4-1.1-1-1.4-1.6
		c-0.3-0.7-0.4-1.4-0.4-2.3c0-0.3,0-0.6,0-1.1c0-0.5,0.1-1.2,0.1-2.1s0.1-2,0.2-3.5c0.1-1.4,0.2-3.2,0.4-5.3
		c0.2-2.6,0.4-4.7,0.5-6.3c0.1-1.5,0.2-2.7,0.3-3.6c0.1-0.8,0.1-1.4,0.1-1.8c0-0.3,0-0.6,0-0.9c0-0.5,0-0.9,0-1.2
		c0-0.3,0-0.5,0.1-0.7c0-0.2,0.1-0.3,0.2-0.4c0.1-0.1,0.3-0.1,0.5-0.1c1.8-0.1,3.2-0.2,4.5-0.3c1.2-0.1,2.3-0.1,3.2-0.1
		c2.3,0,4.2,0.2,5.8,0.6c1.6,0.4,2.9,0.9,3.9,1.6c1,0.7,1.8,1.5,2.2,2.5s0.7,2.2,0.7,3.4c0,0.7-0.1,1.4-0.2,2.2
		c-0.1,0.8-0.4,1.5-0.8,2.2c-0.4,0.7-0.8,1.3-1.4,1.8c-0.6,0.5-1.4,0.9-2.3,1.1c1.7,0.5,2.9,1.4,3.7,2.7c0.7,1.2,1.1,2.7,1.1,4.4
		c0,1.4-0.2,2.7-0.7,3.9s-1.2,2.3-2.3,3.2c-1.1,0.9-2.6,1.6-4.4,2.2C150.1,38.5,147.9,38.7,145.1,38.7z M147.7,24.9
		c-0.3,0-0.7,0-1.2,0.1c-0.1,0-0.1,0-0.2,0c-0.7,0.1-1.3,0.7-1.4,1.4l-0.4,6c1.1,0.3,2,0.5,2.9,0.5c0.9,0,1.7-0.1,2.2-0.4
		c0.6-0.3,1-0.6,1.3-1c0.3-0.4,0.5-0.8,0.6-1.3c0.1-0.5,0.2-0.9,0.2-1.4c0-1.1-0.3-2-0.9-2.8C150.2,25.3,149.2,24.9,147.7,24.9z
		 M145.8,12.6c-0.1,0.8-0.1,1.7-0.2,2.7c0,0.7-0.1,1.4-0.1,2.1c0,0.8,0.5,1.5,1.2,1.6c0.4,0.1,0.8,0.1,1.2,0.1
		c0.9,0,1.6-0.1,2.1-0.3c0.5-0.2,1-0.5,1.3-0.8c0.3-0.3,0.5-0.7,0.6-1.1c0.1-0.4,0.2-0.8,0.2-1.1c0-0.9-0.3-1.7-0.9-2.4
		s-1.7-1-3.1-1c-0.3,0-0.7,0-1.1,0.1C146.6,12.5,146.2,12.6,145.8,12.6z"/>
	<path id="XMLID_105_" class="st1" d="M165.1,7.3c0-0.2,0.1-0.4,0.3-0.5c0.2-0.1,0.3-0.2,0.5-0.2c2,0,3.9-0.1,5.7-0.2
		c1.8-0.1,3.2-0.2,4.2-0.2c2.5,0,4.6,0.3,6.4,0.8s3.1,1.3,4.1,2.4c1.1,1.1,1.8,2.5,2.3,4.1c0.4,1.7,0.7,3.7,0.7,6.1
		c0,2.4-0.2,4.8-0.7,7.1c-0.5,2.3-1.3,4.3-2.6,6.1c-1.2,1.8-2.9,3.2-4.9,4.3c-2.1,1.1-4.7,1.6-7.8,1.6c-1.5,0-2.8,0-4-0.1
		c-1.2-0.1-2.2-0.2-3.1-0.5c-0.9-0.3-1.5-0.7-2-1.3s-0.7-1.4-0.7-2.5c0-0.4,0-1,0.1-1.7c0-0.8,0.1-1.7,0.2-2.8
		c0.1-1.1,0.2-2.3,0.3-3.5c0.1-1.3,0.2-2.7,0.3-4.1c0.2-2.9,0.4-5.3,0.6-7c0.1-1.8,0.2-3.1,0.3-4.1c0-1,0.1-1.7,0.1-2.3
		C165.1,8.3,165.1,7.8,165.1,7.3z M173.4,31.7c1.7,0,3-0.4,4-1.1s1.8-1.6,2.3-2.7c0.5-1.1,0.9-2.3,1.1-3.6s0.3-2.5,0.3-3.7
		c0-1.2-0.1-2.3-0.2-3.3c-0.2-0.9-0.4-1.7-0.8-2.3c-0.4-0.6-1-1.1-1.7-1.4c-0.7-0.3-1.6-0.5-2.7-0.5c-0.3,0-0.7,0-1.2,0
		c-0.1,0-0.1,0-0.2,0c-0.9,0.1-1.7,0.8-1.7,1.7c0,0.7-0.1,1.5-0.1,2.3c-0.1,1.5-0.2,3.1-0.3,4.7c-0.1,1.6-0.2,3.3-0.3,5
		c-0.1,1.7-0.2,3.2-0.4,4.7c0.4,0.1,0.8,0.1,1.2,0.1C172.9,31.7,173.2,31.7,173.4,31.7z"/>
</g>
</svg>
